<svg width="600" height="406" fill="none" xmlns="http://www.w3.org/2000/svg"><path d="M302.245 284.507s-2.464 72.073-2.464 82.171c0 9.394 4.697 13.57 11.668 13.57a11.7 11.7 0 0 0 8.085-3.241l75.068-71.455c-8.768 0-14.75-1.323-22.212-6.43-11.106-7.6-19.29-19.291-33.319-22.799-14.029-3.508-23.382-.584-36.826 8.184Z" fill="#FFF6EB"/><path d="M422.158 281.083c7.307-13.569 1.044-29.222-5.219-34.446 0 0 10.439-5.144 10.439-18.726 0-13.582-9.395-20.373-9.395-20.373s9.395-5.351 9.395-13.646c0-7.836-4.176-11.119-7.307-15.149-2.943-3.787-1.277-13.834 2.399-16.332.413-.281.732-.715.732-1.214 0-.661-.535-1.197-1.195-1.197h-1.936c-14.614 0-27.662 1.562-36.012 6.785-8.351 5.223-11.482 14.111-10.96 22.469-7.414-1.053-17.745-1.374-24.355 4.462-6.609 5.837-8.526 12.212-6.96 22.65-8.351-1.565-21.739-1.287-30.987 8.067-8.101 8.193-9.137 17.987-6.799 26.755-8.184 0-20.129 5.261-21.044 13.445-.915 8.183 5.257 12.275 11.107 12.275 3.472 0 8.183-2.923 15.198-7.014 7.014-4.092 20.208-5.751 33.903-1.754 13.695 3.998 17.202 10.522 33.319 22.797 16.116 12.276 38.371 3.716 45.677-9.854Z" fill="#FFEBF0"/><g opacity=".3" filter="url(#a)"><path d="M218.043 187.913s-1.344 39.313-1.344 44.82c0 5.125 2.562 7.402 6.365 7.402a6.377 6.377 0 0 0 4.409-1.767l40.947-38.976c-4.783 0-8.046-.722-12.116-3.507-6.058-4.146-10.522-10.522-18.174-12.436-7.652-1.913-12.754-.319-20.087 4.464Z" fill="#FFF6EB"/><path d="M283.452 186.046c3.985-7.402.569-15.94-2.847-18.789 0 0 5.694-2.806 5.694-10.215 0-7.408-5.124-11.112-5.124-11.112s5.124-2.919 5.124-7.443c0-4.274-2.278-6.066-3.986-8.264-1.605-2.065-.696-7.545 1.309-8.908.225-.153.399-.39.399-.662a.652.652 0 0 0-.652-.653h-1.056c-7.971 0-15.088.852-19.643 3.701-4.555 2.849-6.263 7.697-5.978 12.256-4.044-.575-9.679-.75-13.284 2.434-3.605 3.183-4.651 6.661-3.797 12.354-4.555-.854-11.857-.702-16.902 4.4-4.418 4.469-4.984 9.812-3.708 14.594-4.464 0-10.98 2.87-11.479 7.333-.499 4.464 2.868 6.696 6.058 6.696 1.894 0 4.464-1.594 8.29-3.826 3.826-2.232 11.023-3.137 18.493-.956 7.47 2.18 9.383 5.739 18.174 12.434 8.791 6.696 20.929 2.027 24.915-5.374Z" fill="#DAFFE4"/></g><g opacity=".6" filter="url(#b)"><path d="M534.305 322.891s-1.68 49.141-1.68 56.026c0 6.405 3.203 9.252 7.956 9.252 2.055 0 4.03-.792 5.512-2.21l51.183-48.719c-5.978 0-10.058-.902-15.145-4.384-7.573-5.182-13.152-13.153-22.717-15.545-9.566-2.392-15.943-.398-25.109 5.58Z" fill="#FFF6EB"/><path d="M616.064 320.557c4.982-9.252.712-19.924-3.559-23.486 0 0 7.117-3.507 7.117-12.768 0-9.261-6.405-13.891-6.405-13.891s6.405-3.648 6.405-9.304c0-5.342-2.846-7.581-4.981-10.329-2.007-2.582-.871-9.432 1.635-11.135.282-.192.5-.488.5-.828a.816.816 0 0 0-.816-.816h-1.319c-9.964 0-18.861 1.065-24.554 4.626-5.694 3.561-7.829 9.621-7.473 15.32-5.055-.718-12.099-.937-16.605 3.042-4.507 3.98-5.813 8.327-4.746 15.444-5.693-1.068-14.822-.878-21.127 5.499-5.524 5.587-6.23 12.265-4.636 18.243-5.58 0-13.725 3.587-14.348 9.167-.624 5.579 3.584 8.369 7.573 8.369 2.367 0 5.579-1.993 10.362-4.782 4.783-2.79 13.778-3.922 23.116-1.196 9.337 2.725 11.729 7.174 22.717 15.543 10.989 8.37 26.162 2.534 31.144-6.718Z" fill="#FFF0F4"/></g><g opacity=".7" filter="url(#c)"><path d="M71.464 343.573s-1.456 42.588-1.456 48.555c0 5.551 2.775 8.018 6.895 8.018a6.912 6.912 0 0 0 4.777-1.914l44.359-42.224c-5.182 0-8.717-.782-13.126-3.799-6.563-4.491-11.399-11.399-19.688-13.472-8.29-2.073-13.817-.346-21.761 4.836Z" fill="#FFF6EB"/><path d="M142.322 341.549c4.318-8.018.617-17.267-3.084-20.354 0 0 6.169-3.04 6.169-11.066s-5.552-12.039-5.552-12.039 5.552-3.161 5.552-8.063c0-4.63-2.468-6.57-4.318-8.952-1.739-2.237-.754-8.174 1.418-9.651.243-.165.432-.422.432-.717a.707.707 0 0 0-.706-.707h-1.144c-8.635 0-16.345.923-21.28 4.009-4.934 3.087-6.785 8.338-6.476 13.277-4.381-.622-10.486-.812-14.392 2.637-3.905 3.449-5.038 7.216-4.112 13.384-4.935-.925-12.846-.76-18.31 4.767-4.788 4.841-5.4 10.629-4.019 15.81-4.835 0-11.894 3.109-12.435 7.945-.54 4.835 3.107 7.253 6.564 7.253 2.051 0 4.835-1.727 8.98-4.145 4.145-2.418 11.941-3.398 20.034-1.036 8.092 2.362 10.165 6.217 19.688 13.471 9.524 7.254 22.674 2.196 26.991-5.823Z" fill="#F2EEFF"/></g><g opacity=".3" filter="url(#d)"><path d="M414.622 72.254s-1.231 36.036-1.231 41.085c0 4.697 2.348 6.785 5.834 6.785a5.85 5.85 0 0 0 4.042-1.62l37.534-35.728c-4.384 0-7.375-.662-11.106-3.215-5.553-3.8-9.645-9.645-16.659-11.4-7.015-1.754-11.691-.291-18.414 4.093Z" fill="#FFF6EB"/><path d="M474.581 70.542c3.654-6.785.522-14.611-2.609-17.223 0 0 5.219-2.572 5.219-9.364 0-6.79-4.697-10.186-4.697-10.186s4.697-2.675 4.697-6.823c0-3.918-2.088-5.56-3.654-7.575-1.471-1.893-.638-6.916 1.2-8.166.206-.14.366-.357.366-.607a.598.598 0 0 0-.598-.598h-.968c-7.306 0-13.83.78-18.006 3.392-4.175 2.612-5.741 7.056-5.48 11.235-3.707-.526-8.872-.687-12.177 2.231-3.305 2.919-4.263 6.106-3.48 11.325-4.175-.783-10.87-.643-15.493 4.033-4.051 4.097-4.569 8.994-3.4 13.378-4.092 0-10.065 2.63-10.522 6.722-.458 4.092 2.629 6.138 5.553 6.138 1.736 0 4.092-1.461 7.599-3.507 3.508-2.046 10.105-2.876 16.952-.877 6.847 1.999 8.601 5.26 16.659 11.399 8.059 6.137 19.186 1.858 22.839-4.927Z" fill="#F2EEFF"/></g><g opacity=".5" filter="url(#e)"><path d="M507.725 168.551s-1.791 52.416-1.791 59.76c0 6.832 3.416 9.869 8.486 9.869a8.501 8.501 0 0 0 5.879-2.357l54.595-51.967c-6.376 0-10.727-.962-16.154-4.676-8.077-5.528-14.029-14.03-24.232-16.581-10.203-2.552-17.005-.425-26.783 5.952Z" fill="#FFF6EB"/><path d="M594.934 166.061c5.314-9.869.76-21.253-3.795-25.052 0 0 7.591-3.741 7.591-13.619s-6.832-14.817-6.832-14.817 6.832-3.891 6.832-9.924c0-5.699-3.036-8.087-5.314-11.018-2.14-2.754-.928-10.06 1.745-11.878.3-.204.533-.52.533-.882a.87.87 0 0 0-.87-.871h-1.408c-10.628 0-20.117 1.136-26.19 4.934-6.073 3.8-8.351 10.263-7.971 16.342-5.392-.766-12.906-1-17.713 3.245-4.806 4.245-6.2 8.881-5.062 16.473-6.073-1.139-15.81-.936-22.536 5.866-5.891 5.959-6.645 13.082-4.945 19.459-5.951 0-14.639 3.826-15.304 9.778-.666 5.951 3.823 8.927 8.078 8.927 2.525 0 5.951-2.125 11.053-5.101 5.101-2.976 14.697-4.183 24.657-1.276 9.959 2.908 12.51 7.653 24.231 16.58 11.722 8.928 27.906 2.703 33.22-7.166Z" fill="#DAF6FF"/></g><defs><filter id="a" x="185" y="116" width="128" height="128.135" filterUnits="userSpaceOnUse" color-interpolation-filters="sRGB"><feFlood flood-opacity="0" result="BackgroundImageFix"/><feBlend in="SourceGraphic" in2="BackgroundImageFix" result="shape"/><feGaussianBlur stdDeviation="2" result="effect1_foregroundBlur_1657_51297"/></filter><filter id="b" x="494" y="234" width="158" height="158.169" filterUnits="userSpaceOnUse" color-interpolation-filters="sRGB"><feFlood flood-opacity="0" result="BackgroundImageFix"/><feBlend in="SourceGraphic" in2="BackgroundImageFix" result="shape"/><feGaussianBlur stdDeviation="2" result="effect1_foregroundBlur_1657_51297"/></filter><filter id="c" x="35" y="265" width="140" height="140.146" filterUnits="userSpaceOnUse" color-interpolation-filters="sRGB"><feFlood flood-opacity="0" result="BackgroundImageFix"/><feBlend in="SourceGraphic" in2="BackgroundImageFix" result="shape"/><feGaussianBlur stdDeviation="2.5" result="effect1_foregroundBlur_1657_51297"/></filter><filter id="d" x="378" y="0" width="130" height="130.124" filterUnits="userSpaceOnUse" color-interpolation-filters="sRGB"><feFlood flood-opacity="0" result="BackgroundImageFix"/><feBlend in="SourceGraphic" in2="BackgroundImageFix" result="shape"/><feGaussianBlur stdDeviation="5" result="effect1_foregroundBlur_1657_51297"/></filter><filter id="e" x="459" y="68" width="180" height="180.18" filterUnits="userSpaceOnUse" color-interpolation-filters="sRGB"><feFlood flood-opacity="0" result="BackgroundImageFix"/><feBlend in="SourceGraphic" in2="BackgroundImageFix" result="shape"/><feGaussianBlur stdDeviation="5" result="effect1_foregroundBlur_1657_51297"/></filter></defs></svg>